<!DOCTYPE svg PUBLIC "-//W3C//DTD SVG 1.1//EN" "http://www.w3.org/Graphics/SVG/1.1/DTD/svg11.dtd">
<!-- Uploaded to: SVG Repo, www.svgrepo.com, Transformed by: SVG Repo Mixer Tools -->
<svg height="800px" width="800px" version="1.1" id="Capa_1" xmlns="http://www.w3.org/2000/svg" xmlns:xlink="http://www.w3.org/1999/xlink" viewBox="0 0 298 298" xml:space="preserve" fill="#000000">
<g id="SVGRepo_bgCarrier" stroke-width="0"/>
<g id="SVGRepo_tracerCarrier" stroke-linecap="round" stroke-linejoin="round"/>
<g id="SVGRepo_iconCarrier"> <g> <path style="fill:#eadac5;" d="M83,282h132V16H83V282z M189.227,209.394l-33.209,50.528c-1.479,2.251-3.992,3.606-6.686,3.606 c-2.693,0-5.206-1.355-6.685-3.606l-33.209-50.528c-1.615-2.457-1.752-5.604-0.355-8.191c1.396-2.589,4.1-4.202,7.041-4.202H124 v-41c0-4.418,3.915-8,8.333-8h34c4.418,0,7.667,3.582,7.667,8v41h8.542c2.941,0,5.644,1.613,7.041,4.202 C190.98,203.79,190.843,206.936,189.227,209.394z M149.332,32.333c27.394,0,49.68,22.286,49.68,49.679 c0,27.394-22.286,49.68-49.68,49.68c-27.393,0-49.678-22.286-49.678-49.68C99.654,54.619,121.939,32.333,149.332,32.333z"/> <path d="M231,8c0-4.418-3.582-8-8-8H75c-4.418,0-8,3.582-8,8v282c0,4.418,3.582,8,8,8h148c4.418,0,8-3.582,8-8V8z M215,282H83V16 h132V282z"/> <path d="M149.332,131.691c27.394,0,49.68-22.286,49.68-49.68c0-27.393-22.286-49.679-49.68-49.679 c-27.393,0-49.678,22.286-49.678,49.679C99.654,109.405,121.939,131.691,149.332,131.691z M149.332,48.333 c18.571,0,33.68,15.108,33.68,33.679c0,18.571-15.108,33.68-33.68,33.68c-18.57,0-33.678-15.108-33.678-33.68 C115.654,63.441,130.762,48.333,149.332,48.333z"/> <path style="fill:#A9BD34;" d="M158,205v-41h-18v41c0,4.418-3.249,8-7.667,8h-1.378l18.378,27.963L167.711,213h-1.378 C161.915,213,158,209.418,158,205z"/> <path d="M182.542,197H174v-41c0-4.418-3.249-8-7.667-8h-34c-4.418,0-8.333,3.582-8.333,8v41h-7.876 c-2.941,0-5.645,1.613-7.041,4.202c-1.396,2.588-1.26,5.734,0.355,8.191l33.209,50.528c1.479,2.251,3.992,3.606,6.685,3.606 c2.693,0,5.206-1.355,6.686-3.606l33.209-50.528c1.615-2.457,1.752-5.604,0.355-8.191C188.186,198.613,185.483,197,182.542,197z M149.333,240.963L130.955,213h1.378c4.418,0,7.667-3.582,7.667-8v-41h18v41c0,4.418,3.915,8,8.333,8h1.378L149.333,240.963z"/> </g> </g>
</svg>