<!DOCTYPE svg PUBLIC "-//W3C//DTD SVG 1.1//EN" "http://www.w3.org/Graphics/SVG/1.1/DTD/svg11.dtd">
<!-- Uploaded to: SVG Repo, www.svgrepo.com, Transformed by: SVG Repo Mixer Tools -->
<svg height="800px" width="800px" version="1.1" id="Capa_1" xmlns="http://www.w3.org/2000/svg" xmlns:xlink="http://www.w3.org/1999/xlink" viewBox="0 0 297.465 297.465" xml:space="preserve" fill="#000000">
<g id="SVGRepo_bgCarrier" stroke-width="0"/>
<g id="SVGRepo_tracerCarrier" stroke-linecap="round" stroke-linejoin="round"/>
<g id="SVGRepo_iconCarrier"> <g> <path style="fill:#eadac5;" d="M132.94,129.85c-30.118-18.071-33.37-40.587-33.37-49.429c0-26.816,21.96-48.396,48.952-48.396 c24.281,0,44.491,17.44,48.305,41.439h16.005c-3.938-33-31.262-57.287-64.276-57.287c-35.516,0-64.41,29.255-64.41,65.068 l-0.019,200.219H212.39v-130.78c-6-0.489-14.395-1.399-24.274-3.034C164.595,143.76,146.143,137.77,132.94,129.85z M148.722,264.681c-27.393,0-49.678-22.286-49.678-49.68c0-27.393,22.285-49.679,49.678-49.679c27.394,0,49.68,22.286,49.68,49.679 C198.401,242.395,176.115,264.681,148.722,264.681z"/> <path d="M220.889,135.215c-0.517-0.021-51.927-2.362-79.8-19.086c-23.107-13.864-25.561-29.59-25.561-35.708 c0-17.994,14.803-32.633,32.973-32.633c18.169,0,32.962,15.132,32.962,33.439c0,4.418,3.592,8.238,8.01,8.238h31.846 c0.008,0,0.016,0,0.02,0c4.419,0,8-3.82,8-8.238c0-0.201-0.007-0.521-0.021-0.719C228.996,36.091,192.891,0,148.556,0 c-44.338,0-80.41,36.283-80.41,80.918l-0.02,208.085c0,2.122,0.843,4.388,2.343,5.888c1.5,1.501,3.535,2.574,5.657,2.574h144.597 c4.418,0,7.667-4.058,7.667-8.476V143.208C228.39,138.92,225.173,135.395,220.889,135.215z M212.39,281.465H84.127l0.019-200.338 c0-35.812,28.895-64.83,64.41-64.83c33.015,0,60.339,24.168,64.276,57.168h-16.005c-3.814-24-24.023-41.439-48.305-41.439 c-26.992,0-48.952,21.698-48.952,48.515c0,8.842,3.252,31.298,33.37,49.369c13.202,7.921,31.655,13.88,55.175,17.77 c9.879,1.635,18.274,2.516,24.274,3.005V281.465z"/> <path style="fill:#C52D2F;" d="M125.487,191.465h46.471c-6.049-6-14.232-9.334-23.236-9.334 C139.718,182.131,131.535,185.465,125.487,191.465z"/> <path style="fill:#C52D2F;" d="M124.46,238.465c6.131,7,14.737,10.357,24.262,10.357c9.524,0,18.132-3.357,24.264-10.357H124.46z"/> <path d="M148.722,165.322c-27.393,0-49.678,22.286-49.678,49.679c0,27.394,22.285,49.68,49.678,49.68 c27.394,0,49.68-22.286,49.68-49.68C198.401,187.608,176.115,165.322,148.722,165.322z M148.722,248.822 c-9.524,0-18.131-3.357-24.262-10.357h48.525C166.854,245.465,158.246,248.822,148.722,248.822z M116.104,207.465h65.238 c0.704,2,1.06,5.18,1.06,8.012c0,2.477-0.271,4.988-0.808,6.988h-65.742c-0.537-2-0.808-4.512-0.808-6.988 C115.044,212.645,115.399,209.465,116.104,207.465z M125.487,191.465c6.048-6,14.231-9.334,23.234-9.334 c9.004,0,17.187,3.334,23.236,9.334H125.487z"/> <path style="fill:#eadac5;" d="M115.044,215.477c0,2.477,0.271,4.988,0.808,6.988h65.742c0.537-2,0.808-4.512,0.808-6.988 c0-2.832-0.355-6.012-1.06-8.012h-65.238C115.399,209.465,115.044,212.645,115.044,215.477z"/> </g> </g>
</svg>